#!OML:ASF F:\VICON\USERDATA\Patient Classification 1\PLAYGROUND\JustinFriday\JustinFriday.ASF
:FULLY-SPECIFIED
:DEGREES
2037
root 14.7445 16.5631 27.3057 -196.733 -162.252 -179.4
lowerback 22.2719 3.05273 2.37324
upperback 5.83634 4.67411 3.09064
thorax -6.09141 2.227 0.734004
lowerneck -7.17533 -3.34729 -7.60861
upperneck 26.4555 -3.83765 1.38936
head 9.73159 -2.39672 1.37751
rclavicle -6.50026e-014 -1.35174e-014
rhumerus 45.0905 23.6366 -61.1338
rradius 50.5307
rwrist 13.8273
rhand -13.8405 -22.6035
rfingers 7.12502
rthumb 12.2829 -52.2228
lclavicle -6.50026e-014 -1.35174e-014
lhumerus 27.4366 -8.68947 81.8569
lradius 64.6711
lwrist -17.4828
lhand 19.0977 2.93956
lfingers 7.12502
lthumb 43.6937 26.9358
rfemur -7.87351 -10.1228 20.3877
rtibia 58.1504
rfoot -25.2572 -10.5638
rtoes 9.60165
lfemur -36.1162 7.60141 -13.4478
ltibia 32.036
lfoot -12.9579 4.39212
ltoes 6.72707
2038
root 14.6941 16.5664 27.3427 -196.984 -162.453 -179.46
lowerback 22.3578 3.06525 2.32813
upperback 5.93301 4.68118 3.12058
thorax -6.0365 2.2317 0.788469
lowerneck -7.23568 -3.37302 -7.79096
upperneck 26.4672 -3.89751 1.62962
head 9.75943 -2.41609 1.48489
rclavicle -2.18663e-015 1.82882e-014
rhumerus 45.3885 23.3735 -61.3071
rradius 50.8644
rwrist 13.7086
rhand -9.84692 -25.2153
rfingers 7.12502
rthumb 16.1311 -54.564
lclavicle -2.18663e-015 1.82882e-014
lhumerus 27.387 -8.6763 81.8033
lradius 65.5771
lwrist -17.5035
lhand 19.2746 2.51535
lfingers 7.12502
lthumb 43.8587 26.4507
rfemur -7.70817 -10.5034 20.4028
rtibia 59.0013
rfoot -25.6182 -10.6339
rtoes 10.0314
lfemur -35.4538 7.02304 -12.9074
ltibia 29.6937
lfoot -13.2756 5.18416
ltoes 10.0562
2039
root 14.6469 16.4644 27.4233 -197.238 -162.604 -179.526
lowerback 22.498 3.11838 2.32119
upperback 5.95938 4.75441 3.13403
thorax -6.08186 2.26661 0.780979
lowerneck -7.09241 -3.37395 -7.46504
upperneck 26.2879 -3.90393 1.39573
head 9.65441 -2.40945 1.35013
rclavicle -2.93207e-014 1.19271e-014
rhumerus 45.4799 23.1303 -61.6155
rradius 51.4562
rwrist 12.2524
rhand -7.19446 -27.3244
rfingers 7.12502
rthumb 18.6838 -56.4471
lclavicle -2.93207e-014 1.19271e-014
lhumerus 27.2085 -8.81757 81.7029
lradius 66.4538
lwrist -17.3486
lhand 19.4826 1.83167
lfingers 7.12502
lthumb 44.0528 25.6948
rfemur -7.6633 -10.8248 20.3989
rtibia 60.2615
rfoot -26.3833 -10.8332
rtoes 9.82747
lfemur -35.1364 7.18589 -12.8599
ltibia 26.6424
lfoot -11.5954 6.27577
ltoes 9.572
2040
root 14.5987 16.3839 27.4979 -197.417 -162.701 -179.656
lowerback 22.5338 3.19861 2.42913
upperback 6.01435 4.8826 3.13996
thorax -6.03219 2.32911 0.691947
lowerneck -7.06294 -3.44653 -7.08061
upperneck 26.208 -3.98909 1.07306
head 9.6077 -2.4438 1.16466
rclavicle 3.93594e-014 5.56597e-015
rhumerus 44.9985 22.6111 -61.6633
rradius 53.8672
rwrist 10.8775
rhand -3.4652 -29.1345
rfingers 7.12502
rthumb 22.2674 -57.8716
lclavicle 3.93594e-014 5.56597e-015
lhumerus 27.0967 -9.05467 81.5552
lradius 67.3687
lwrist -17.0604
lhand 19.9058 1.57914
lfingers 7.12502
lthumb 44.4474 25.2931
rfemur -7.61569 -11.0796 20.4939
rtibia 61.3165
rfoot -26.8979 -11.0244
rtoes 9.45179
lfemur -34.8542 6.95474 -12.3979
ltibia 24.1785
lfoot -11.994 6.79486
ltoes 16.9653
2041
root 14.5499 16.2747 27.5833 -197.77 -162.863 -179.833
lowerback 22.7641 3.20004 2.47056
upperback 6.0767 4.90221 3.17632
thorax -6.08202 2.33693 0.692606
lowerneck -7.32503 -3.49548 -7.26923
upperneck 26.6192 -4.07963 1.35518
head 9.82041 -2.4788 1.27952
rclavicle -3.40916e-014 1.51076e-014
rhumerus 44.3081 21.8742 -62.6734
rradius 55.6247
rwrist 10.8195
rhand 0.625301 -30.2386
rfingers 7.12502
rthumb 26.1892 -58.452
lclavicle -3.40916e-014 1.51076e-014
lhumerus 26.8551 -9.09 81.4306
lradius 68.2864
lwrist -16.9196
lhand 20.2965 1.90463
lfingers 7.12502
lthumb 44.8112 25.4782
rfemur -7.40975 -11.4988 20.4915
rtibia 62.5262
rfoot -27.4686 -10.8564
rtoes 9.61106
lfemur -34.361 6.73584 -12.0654
ltibia 21.5233
lfoot -11.4383 7.61579
ltoes 16.9927
2042
root 14.5004 16.2164 27.6501 -198.048 -163.072 -179.878
lowerback 22.8858 3.15489 2.26778
upperback 6.07204 4.80436 3.19014
thorax -6.16741 2.28971 0.842024
lowerneck -7.4601 -3.45659 -7.77671
upperneck 26.9953 -4.11226 2.05427
head 10.0114 -2.47451 1.60509
rclavicle -4.67144e-014 -2.8625e-014
rhumerus 43.7557 21.5746 -63.5671
rradius 57.1382
rwrist 10.993
rhand 3.94685 -30.5811
rfingers 7.12502
rthumb 29.365 -58.2815
lclavicle -4.67144e-014 -2.8625e-014
lhumerus 26.5591 -8.95698 81.1682
lradius 69.1393
lwrist -16.752
lhand 20.6182 2.73375
lfingers 7.12502
lthumb 45.1106 26.1896
rfemur -7.25936 -11.9233 20.3777
rtibia 63.5257
rfoot -27.9348 -10.9476
rtoes 8.91492
lfemur -34.2267 7.23387 -12.2938
ltibia 19.3872
lfoot -9.83616 8.412
ltoes 13.024
2043
root 14.4559 16.1971 27.6979 -198.217 -163.166 -179.787
lowerback 22.8372 3.19002 1.99092
upperback 6.11599 4.78439 3.19395
thorax -6.1176 2.28353 1.01138
lowerneck -7.42001 -3.43845 -8.20354
upperneck 26.9972 -4.15169 2.57524
head 10.0281 -2.47974 1.85778
rclavicle 5.20319e-014 -4.77083e-015
rhumerus 43.6098 21.5273 -63.8317
rradius 57.7558
rwrist 9.19258
rhand 3.06966 -30.8877
rfingers 7.12502
rthumb 28.5271 -58.7318
lclavicle 5.20319e-014 -4.77083e-015
lhumerus 26.6525 -9.01259 80.5598
lradius 69.9455
lwrist -16.2455
lhand 20.7684 3.87345
lfingers 7.12502
lthumb 45.2502 27.2738
rfemur -7.20447 -12.1803 20.2203
rtibia 64.3203
rfoot -28.2844 -11.4354
rtoes 6.87605
lfemur -33.7405 7.10065 -11.8294
ltibia 17.6928
lfoot -10.9266 7.83853
ltoes 19.6113
